<?xml version="1.0" encoding="UTF-8" standalone="no"?>
<!-- Created with Inkscape (http://www.inkscape.org/) -->

<svg xmlns:inkscape="http://www.inkscape.org/namespaces/inkscape" xmlns:sodipodi="http://sodipodi.sourceforge.net/DTD/sodipodi-0.dtd" xmlns="http://www.w3.org/2000/svg" xmlns:svg="http://www.w3.org/2000/svg" xmlns:rdf="http://www.w3.org/1999/02/22-rdf-syntax-ns#" xmlns:cc="http://creativecommons.org/ns#" xmlns:dc="http://purl.org/dc/elements/1.1/" width="96" height="96" id="svg6517" version="1.1" inkscape:version="0.48.4 r9939" sodipodi:docname="icon.svg" viewBox="0 0 96 96">
  <defs id="defs6519">
    <linearGradient id="Background">
      <stop id="stop4178" offset="0" style="stop-color:#b8b8b8;stop-opacity:1"></stop>
      <stop id="stop4180" offset="1" style="stop-color:#c9c9c9;stop-opacity:1"></stop>
    </linearGradient>
    <filter style="color-interpolation-filters:sRGB;" inkscape:label="Inner Shadow" id="filter1121">
      <feFlood flood-opacity="0.59999999999999998" flood-color="rgb(0,0,0)" result="flood" id="feFlood1123"></feFlood>
      <feComposite in="flood" in2="SourceGraphic" operator="out" result="composite1" id="feComposite1125"></feComposite>
      <feGaussianBlur in="composite1" stdDeviation="1" result="blur" id="feGaussianBlur1127"></feGaussianBlur>
      <feOffset dx="0" dy="2" result="offset" id="feOffset1129"></feOffset>
      <feComposite in="offset" in2="SourceGraphic" operator="atop" result="composite2" id="feComposite1131"></feComposite>
    </filter>
    <filter style="color-interpolation-filters:sRGB;" inkscape:label="Drop Shadow" id="filter950">
      <feFlood flood-opacity="0.25" flood-color="rgb(0,0,0)" result="flood" id="feFlood952"></feFlood>
      <feComposite in="flood" in2="SourceGraphic" operator="in" result="composite1" id="feComposite954"></feComposite>
      <feGaussianBlur in="composite1" stdDeviation="1" result="blur" id="feGaussianBlur956"></feGaussianBlur>
      <feOffset dx="0" dy="1" result="offset" id="feOffset958"></feOffset>
      <feComposite in="SourceGraphic" in2="offset" operator="over" result="composite2" id="feComposite960"></feComposite>
    </filter>
    <clipPath clipPathUnits="userSpaceOnUse" id="clipPath873">
      <g transform="matrix(0,-0.66666667,0.66604479,0,-258.25992,677.00001)" id="g875" inkscape:label="Layer 1" style="fill:#ff00ff;fill-opacity:1;stroke:none;display:inline">
        <path style="fill:#ff00ff;fill-opacity:1;stroke:none;display:inline" d="m 46.702703,898.22775 50.594594,0 C 138.16216,898.22775 144,904.06497 144,944.92583 l 0,50.73846 c 0,40.86071 -5.83784,46.69791 -46.702703,46.69791 l -50.594594,0 C 5.8378378,1042.3622 0,1036.525 0,995.66429 L 0,944.92583 C 0,904.06497 5.8378378,898.22775 46.702703,898.22775 Z" id="path877" inkscape:connector-curvature="0" sodipodi:nodetypes="sssssssss"></path>
      </g>
    </clipPath>
    <filter inkscape:collect="always" id="filter891" inkscape:label="Badge Shadow">
      <feGaussianBlur inkscape:collect="always" stdDeviation="0.71999962" id="feGaussianBlur893"></feGaussianBlur>
    </filter>
  </defs>
  <sodipodi:namedview id="base" pagecolor="#ffffff" bordercolor="#666666" borderopacity="1.0" inkscape:pageopacity="0.0" inkscape:pageshadow="2" inkscape:zoom="4.0745362" inkscape:cx="-7.9163247" inkscape:cy="49.018169" inkscape:document-units="px" inkscape:current-layer="layer1" showgrid="true" fit-margin-top="0" fit-margin-left="0" fit-margin-right="0" fit-margin-bottom="0" inkscape:window-width="1855" inkscape:window-height="1176" inkscape:window-x="65" inkscape:window-y="24" inkscape:window-maximized="1" showborder="true" showguides="true" inkscape:guide-bbox="true" inkscape:showpageshadow="false">
    <inkscape:grid type="xygrid" id="grid821"></inkscape:grid>
    <sodipodi:guide orientation="1,0" position="16,48" id="guide823"></sodipodi:guide>
    <sodipodi:guide orientation="0,1" position="64,80" id="guide825"></sodipodi:guide>
    <sodipodi:guide orientation="1,0" position="80,40" id="guide827"></sodipodi:guide>
    <sodipodi:guide orientation="0,1" position="64,16" id="guide829"></sodipodi:guide>
  </sodipodi:namedview>
  <metadata id="metadata6522">
    <rdf:RDF>
      <cc:Work rdf:about="">
        <dc:format>image/svg+xml</dc:format>
        <dc:type rdf:resource="http://purl.org/dc/dcmitype/StillImage"></dc:type>
        <dc:title></dc:title>
      </cc:Work>
    </rdf:RDF>
  </metadata>
  <g inkscape:label="BACKGROUND" inkscape:groupmode="layer" id="layer1" transform="translate(268,-635.29076)" style="display:inline">
    <path style="fill:#eaeaea;fill-opacity:1;stroke:none;display:inline;filter:url(#filter1121)" d="m -268,700.15563 0,-33.72973 c 0,-27.24324 3.88785,-31.13513 31.10302,-31.13513 l 33.79408,0 c 27.21507,0 31.1029,3.89189 31.1029,31.13513 l 0,33.72973 c 0,27.24325 -3.88783,31.13514 -31.1029,31.13514 l -33.79408,0 C -264.11215,731.29077 -268,727.39888 -268,700.15563 Z" id="path6455" inkscape:connector-curvature="0" sodipodi:nodetypes="sssssssss"></path>
    <g transform="matrix(0.24791804,0,0,0.24791804,-254.28756,658.55634)" id="Calque_3">
      <g id="XMLID_1_">
        <path style="fill:#d1a41a" inkscape:connector-curvature="0" d="m 53.729981,130 c 2.95996,3.65039 6.25,7.34961 9.870117,11.06934 -10.540039,3.17089 -17.450196,9.06054 -21.760254,14.26074 -6.819824,8.23047 -10.429688,19.10058 -9.59961,28.42969 H 14.089844 C 17.72998,175.86035 32.259766,153.04004 53.729981,130 z" id="path3225"></path>
        <path style="fill:#d1a41a" inkscape:connector-curvature="0" d="m 263.99023,188.70996 h -22.07031 c -50.62988,-26.41992 -95.08008,-45.0498 -142.299803,-49.12012 0.100098,-6.57031 1.270023,-14.00976 3.520023,-22.2998 l -4.350101,-1.16992 c -2.310059,8.51953 -3.520019,16.22949 -3.660156,23.12988 -4.919922,-0.33008 -9.870117,-0.49023 -14.870117,-0.49023 -4.229981,0 -8.089844,0.39062 -11.609864,1.07031 -4.589844,-4.58008 -8.5,-8.95996 -11.819824,-13.10938 21.779785,-22.68066 57.649902,-43.201169 88.870122,-50.920895 8.79003,29.219725 27.66015,49.240235 50.55957,62.709965 1.67968,-0.95997 3.33007,-1.95997 4.95019,-3.01954 l 39.9502,43.00977 1.75,-0.15039 c 10.90918,-0.93945 17.10937,4.98047 18.75,6.82031 1.20996,1.33985 1.92968,2.57031 2.33007,3.54004 z" id="path3227"></path>
        <path style="fill:#ffdc76" inkscape:connector-curvature="0" d="m 244.5,44.849609 c 0.81055,39.69043 -19.43945,71.280271 -47.79004,87.480471 -48.12012,-23.96973 -57.18017,-84.709963 -48.97998,-117.290041 2.27979,12.459961 6.43018,20.270508 15.39014,24.100586 19.54004,-5.59082 46.42968,-6.03125 66.24023,-0.570313 8.25,-6 11.4502,-15.169921 13.2002,-23.179687 2.17968,9.319336 1.92968,29.458984 1.93945,29.458984 z" id="path3229"></path>
      </g>
    </g>
    <g transform="matrix(0.24791804,0,0,0.24791804,-254.28756,658.55634)" id="Layer_1">
      <polygon points="108.50146,89.226562 123.4585,82.427734 130.80078,104.18359 " id="polygon3232"></polygon>
      <polygon points="93.272949,97.113281 101.9751,91.946289 109.86133,105.54297 " id="polygon3234"></polygon>
      <polygon points="76.412598,108.2627 84.026855,102.55176 87.833984,116.14941 " id="polygon3236"></polygon>
      <polygon points="211.02344,144.15918 205.58496,138.99219 198.51465,149.87012 " id="polygon3238"></polygon>
      <polygon points="221.08594,156.125 216.73438,151.50195 205.31348,160.2041 " id="polygon3240"></polygon>
      <polygon points="202.86523,33.207031 188.99609,33.478516 197.42676,51.970703 " id="polygon3242"></polygon>
      <polygon points="147.66113,68.287109 146.30176,60.400391 159.62695,67.470703 " id="polygon3244"></polygon>
      <polygon points="150.9248,79.980469 149.56494,74.814453 157.72314,78.077148 " id="polygon3246"></polygon>
      <polygon points="242.84082,71.550781 244.74512,65.568359 233.86719,70.191406 " id="polygon3248"></polygon>
      <polygon points="238.76172,83.788086 240.39355,78.892578 231.96387,81.34082 " id="polygon3250"></polygon>
    </g>
    <g transform="matrix(0.24791804,0,0,0.24791804,-254.28756,658.55634)" id="Calque_4">
      <rect x="141.92334" y="99.302734" width="26.244629" height="3.2392578" id="rect3253"></rect>
      <rect x="141.92334" y="91.525391" width="26.244629" height="3.2402344" id="rect3255"></rect>
      <rect x="222.06348" y="99.302734" width="26.244141" height="3.2392578" id="rect3257"></rect>
      <rect x="222.06348" y="91.525391" width="26.244141" height="3.2402344" id="rect3259"></rect>
      <g id="g3261">
        <path inkscape:connector-curvature="0" d="m 212.81348,72.316406 h -27.1875 -3.02051 -12.56055 v -2.916015 h 13.30957 c 1.63867,-7.017578 1.96289,-13.72461 -0.0137,-17.125 -0.84375,-1.445313 -2.00977,-2.121094 -3.67383,-2.121094 -7.60937,0 -10.75293,8.046875 -10.88379,8.388672 l 0.002,-0.002 -2.73047,-1.024414 c 0.15625,-0.419922 3.96484,-10.278321 13.6123,-10.278321 2.69238,0 4.83399,1.236328 6.19141,3.570313 2.41015,4.140625 2.12695,11.304687 0.49414,18.591797 h 23.35449 c 3.10254,-9.115235 9.58106,-13.413086 20.40527,-13.413086 v 2.915039 c -11.73242,0 -15.01855,4.973633 -17.36621,10.498047 h 12.74317 l -0.0293,2.901367 -12.64648,0.01465 z" id="path3263"></path>
        <path inkscape:connector-curvature="0" d="m 214.73047,86.717773 0.0186,-0.0029 c -3.45898,-5.100586 -4.55468,-9.455078 -3.10839,-14.413086 l -2.97071,0.01465 c -1.03515,3.300781 -0.62012,8.273438 1.92871,12.540039 h -29.6748 c 1.80566,-3.616211 3.47949,-8.02539 4.70215,-12.540039 h -3.02051 c -1.34766,4.78711 -3.24121,9.524414 -5.37207,13.277344 l -0.68945,1.212891 16.65234,10.482421 -9.375,6.177737 1.60547,2.43554 10.47851,-6.908198 11.31153,7.381838 1.55371,-2.46778 -10.48828,-6.488277 c 0,0 15.68164,-10.186523 16.46093,-10.683594 -0.005,-0.0068 -0.008,-0.01269 -0.0127,-0.01856 z m -18.86035,8.808594 -12.31739,-7.754883 24.07129,0.0059 -11.7539,7.749023 z" id="path3265"></path>
      </g>
    </g>
    <g transform="matrix(0.24791804,0,0,0.24791804,-254.28756,658.55634)" id="Calque_2">
      <path inkscape:connector-curvature="0" d="m 249.39404,41.333008 c -0.0185,-5.070313 -1.59765,-26.5 -4.5,-32.4003908 -7.86914,2.9902348 -22.18945,12.6796878 -25.43066,22.5878908 -15.53223,-2.319336 -33.04199,-2.044922 -48.38086,0.609375 -2.5625,-10.660157 -15.42432,-18.81836 -25.12744,-23.4140627 -4.09278,6.9062497 -5.90625,22.9199217 -5.44483,34.2792967 -0.0176,0.01172 -0.0366,0.02344 -0.0542,0.03613 1.79981,47.700195 25.19971,77.399413 55.79932,95.399413 31.48145,-17.98828 53.97168,-53.05664 53.10059,-97.119139 0.0127,0.0078 0.0264,0.01367 0.0381,0.02148 z m -26.19629,-9.196289 c 0.11426,0.02051 0.22852,0.04199 0.34375,0.06348 -0.11425,-0.02148 -0.22851,-0.04297 -0.34375,-0.06348 z m -1.958,-0.337891 c 0.27539,0.04395 0.55371,0.09375 0.83007,0.140625 -0.27636,-0.04687 -0.55273,-0.09473 -0.83007,-0.140625 z m 23.25683,12.975586 c 0.80957,39.69043 -19.44043,71.279296 -47.79004,87.480466 -48.11816,-23.97656 -57.18261,-84.710935 -48.97705,-117.28906 2.28272,12.455078 6.42432,20.266602 15.39356,24.098633 19.53271,-5.59082 46.42334,-6.032226 66.23095,-0.569336 8.25489,-6.001953 11.45606,-15.169922 13.20411,-23.179687 2.18359,9.321289 1.93164,29.455078 1.93847,29.458984 z" id="path3268"></path>
      <path inkscape:connector-curvature="0" d="m 265.01709,182.09082 c -4.94141,-5.52832 -14.62305,-8.14453 -22.70703,-7.95117 -5.73828,-6.83008 -39.00391,-41.86133 -39.00391,-41.86133 l -2.30566,2.90332 40.16211,43.23828 1.74316,-0.14941 c 10.91211,-0.93457 17.11524,4.9834 18.75684,6.81933 1.2041,1.34668 1.93066,2.5752 2.32617,3.53907 h -22.0752 C 191.28955,162.21289 146.83545,143.58496 99.616211,139.5166 c 0.103515,-6.57129 1.273439,-14.00976 3.518069,-22.29883 l -4.343265,-1.17675 c -2.307617,8.5205 -3.523437,16.23632 -3.660644,23.13281 -4.919922,-0.32617 -9.87207,-0.49512 -14.867676,-0.49512 -4.236816,0 -8.095215,0.39356 -11.614258,1.07715 -4.589843,-4.58691 -8.5,-8.95899 -11.822754,-13.1084 C 78.761719,103.79785 114.97559,83.149414 146.35889,75.555664 L 145.34375,71.15918 C 111.55176,79.307617 74.563965,101.49414 53.953125,122.9209 44.388183,110.01074 40.593262,99.416992 39.466308,91.388672 38.04248,81.249023 40.46289,71.947265 46.465332,64.489258 55.862305,52.81543 69.214355,51.993164 82.942383,54.301758 c -0.268067,2.167968 0.01709,4.240234 0.885254,5.522461 3.630859,5.362304 23.143553,7.246093 34.791013,2.049804 -8.59521,-12.044922 -26.005857,-17.925781 -30.830076,-15.569336 -1.598144,0.780274 -2.803711,2.213868 -3.629883,3.885743 -4.745117,-0.848633 -9.458008,-1.480469 -12.902832,-1.455079 -12.107422,0.08887 -21.363281,4.319336 -28.295898,12.932618 -6.801758,8.450195 -9.550781,18.944336 -7.950195,30.346679 1.516113,10.799802 6.863281,22.286132 15.825195,34.198242 -1.48877,1.59668 -2.927735,3.17383 -4.3125,4.72266 -21.843262,24.4414 -37.8100587,50.65039 -37.8100587,54.99316 v 2.25 H 37.52832 l -0.504883,-2.66797 c -1.627441,-8.60058 1.622559,-19.35058 8.279297,-27.38476 4.1792,-5.04395 11.09961,-10.80078 21.967774,-13.45703 9.663086,9.43066 21.974609,19.44628 35.678712,29.10937 h 21.41357 v -2.25 c 0,-2.53906 -1.25879,-4.76172 -3.54492,-6.25684 -3.38281,-2.21191 -8.60498,-2.5166 -13.40185,-0.88086 -4.57325,-5.09277 -7.13721,-11.89648 -7.690923,-20.34667 46.474123,4.11523 90.926763,22.88281 141.084963,49.08496 h 27.59765 l 0.36133,-1.8086 c 0.51563,-2.57519 -0.88769,-6.02539 -3.75195,-9.22949 z M 41.837891,155.25488 c -6.815918,8.22657 -10.428711,19.09375 -9.601075,28.42383 H 14.083984 c 3.647461,-7.89355 18.17627,-30.71191 39.643555,-53.75976 2.958008,3.65625 6.25293,7.3496 9.87207,11.07324 -10.540039,3.16797 -17.450195,9.05957 -21.761718,14.26269 z" id="path3270"></path>
    </g>
  </g>
  <g inkscape:groupmode="layer" id="layer3" inkscape:label="PLACE YOUR PICTOGRAM HERE" style="display:inline"></g>
  <g inkscape:groupmode="layer" id="layer2" inkscape:label="BADGE" style="display:none" sodipodi:insensitive="true">
    <g style="display:inline" transform="translate(-340.00001,-581)" id="g4394" clip-path="none">
      <g id="g855">
        <g inkscape:groupmode="maskhelper" id="g870" clip-path="url(#clipPath873)" style="opacity:0.6;filter:url(#filter891)">
          <path transform="matrix(1.4999992,0,0,1.4999992,-29.999795,-237.54282)" d="m 264,552.36218 c 0,6.62742 -5.37258,12 -12,12 -6.62742,0 -12,-5.37258 -12,-12 0,-6.62741 5.37258,-12 12,-12 6.62742,0 12,5.37259 12,12 z" sodipodi:ry="12" sodipodi:rx="12" sodipodi:cy="552.36218" sodipodi:cx="252" id="path844" style="color:#000000;fill:#000000;fill-opacity:1;fill-rule:nonzero;stroke:none;stroke-width:4;marker:none;visibility:visible;display:inline;overflow:visible;enable-background:accumulate" sodipodi:type="arc"></path>
        </g>
        <g id="g862">
          <path sodipodi:type="arc" style="color:#000000;fill:#f5f5f5;fill-opacity:1;fill-rule:nonzero;stroke:none;stroke-width:4;marker:none;visibility:visible;display:inline;overflow:visible;enable-background:accumulate" id="path4398" sodipodi:cx="252" sodipodi:cy="552.36218" sodipodi:rx="12" sodipodi:ry="12" d="m 264,552.36218 c 0,6.62742 -5.37258,12 -12,12 -6.62742,0 -12,-5.37258 -12,-12 0,-6.62741 5.37258,-12 12,-12 6.62742,0 12,5.37259 12,12 z" transform="matrix(1.4999992,0,0,1.4999992,-29.999795,-238.54282)"></path>
          <path transform="matrix(1.25,0,0,1.25,33,-100.45273)" d="m 264,552.36218 c 0,6.62742 -5.37258,12 -12,12 -6.62742,0 -12,-5.37258 -12,-12 0,-6.62741 5.37258,-12 12,-12 6.62742,0 12,5.37259 12,12 z" sodipodi:ry="12" sodipodi:rx="12" sodipodi:cy="552.36218" sodipodi:cx="252" id="path4400" style="color:#000000;fill:#dd4814;fill-opacity:1;fill-rule:nonzero;stroke:none;stroke-width:4;marker:none;visibility:visible;display:inline;overflow:visible;enable-background:accumulate" sodipodi:type="arc"></path>
          <path sodipodi:type="star" style="color:#000000;fill:#f5f5f5;fill-opacity:1;fill-rule:nonzero;stroke:none;stroke-width:3;marker:none;visibility:visible;display:inline;overflow:visible;enable-background:accumulate" id="path4459" sodipodi:sides="5" sodipodi:cx="666.19574" sodipodi:cy="589.50385" sodipodi:r1="7.2431178" sodipodi:r2="4.3458705" sodipodi:arg1="1.0471976" sodipodi:arg2="1.6755161" inkscape:flatsided="false" inkscape:rounded="0.1" inkscape:randomized="0" d="m 669.8173,595.77657 c -0.39132,0.22593 -3.62645,-1.90343 -4.07583,-1.95066 -0.44938,-0.0472 -4.05653,1.36297 -4.39232,1.06062 -0.3358,-0.30235 0.68963,-4.03715 0.59569,-4.47913 -0.0939,-0.44198 -2.5498,-3.43681 -2.36602,-3.8496 0.18379,-0.41279 4.05267,-0.59166 4.44398,-0.81759 0.39132,-0.22593 2.48067,-3.48704 2.93005,-3.4398 0.44938,0.0472 1.81505,3.67147 2.15084,3.97382 0.3358,0.30236 4.08294,1.2817 4.17689,1.72369 0.0939,0.44198 -2.9309,2.86076 -3.11469,3.27355 -0.18379,0.41279 0.0427,4.27917 -0.34859,4.5051 z" transform="matrix(1.511423,-0.16366377,0.16366377,1.511423,-755.37346,-191.93651)"></path>
        </g>
      </g>
    </g>
  </g>
</svg>
